<?xml version="1.0" encoding="UTF-8"?>
<svg id="Layer_2" data-name="Layer 2" xmlns="http://www.w3.org/2000/svg" viewBox="0 0 84.42 119.98">
  <defs>
    <style>
      .cls-1 {
        fill: #fdbb4e;
      }

      .cls-1, .cls-2, .cls-3, .cls-4, .cls-5, .cls-6, .cls-7, .cls-8 {
        stroke-width: 0px;
      }

      .cls-3 {
        fill: #fff;
      }

      .cls-4 {
        fill: #c9f3ff;
      }

      .cls-5 {
        fill: #74ccff;
      }

      .cls-6 {
        fill: #ff3a11;
      }

      .cls-7 {
        fill: #ffef60;
      }

      .cls-8 {
        fill: #ff9d3c;
      }
    </style>
  </defs>
  <g id="Layer_11" data-name="Layer 11">
    <path class="cls-4" d="m67.29,103.32c-1.9,11.53-16.38,18.74-32.34,16.11-15.96-2.63-27.37-14.1-25.47-25.63.65-3.95,2.78-7.4,5.94-10.11,6.06-5.2,15.91-7.73,26.4-6,15.96,2.63,27.37,14.1,25.47,25.63Z"/>
    <path class="cls-4" d="m11.28,74.76c-.51,1.63-1.21,4.7-.49,8.4.4,2.05,1.12,3.68,1.75,4.85,1.82-1.16,3.63-2.33,5.45-3.49-.97-.42-2.62-1.3-4.07-3-2.28-2.69-2.58-5.69-2.64-6.75Z"/>
  </g>
  <g id="Layer_12" data-name="Layer 12">
    <circle class="cls-5" cx="26.14" cy="98.7" r="3.71"/>
    <circle class="cls-5" cx="36.94" cy="101.15" r="3.71"/>
    <circle class="cls-5" cx="48.33" cy="102.65" r="3.71"/>
  </g>
  <g id="Layer_8" data-name="Layer 8">
    <path class="cls-7" d="m51.65,78.77c1.51,1.03,2.62,1.11,7.97,1.61,13.21,1.23,17.43,1.73,19.87-.95.81-.89,1.31-2,1.48-2.38,1.2-2.71,1.27-6.25.05-6.81-.83-.38-1.94.8-2.15.58-.48-.51,6.36-5.51,5.46-8.43-.97-3.16-10.75-3.17-16.89-2.2-1.08.17-4.39.8-10.67,3.04-8.35,2.98-8.82,3.26-9.26,4.05-1.86,3.31.4,8.96,4.14,11.5Z"/>
  </g>
  <g id="Layer_9" data-name="Layer 9">
    <path class="cls-8" d="m26.75,79.18c-1.66,1.68-2.53,3.34-3,4.53-.23.58-1.79,4.44-.5,5.46.61.48,1.82.31,2.06-.17.14-.27-.11-.5-.22-1.06-.25-1.2.4-2.37.56-2.34.21.04-.38,2.18.56,4.18.23.49.51.88.95,1,.4.11.92,0,1.17-.33.19-.25.17-.54.06-1.34-.26-1.8-.42-2.16-.17-2.51.27-.37.86-.53,1.17-.33.32.2.18.69.28,1.5.05.39.26,2.18,1.28,2.62.55.23,1.33.08,1.67-.39.23-.32.2-.71.17-1-.11-1.05-.75-1.16-.95-2.12-.2-.96.26-1.81.39-2.06.32-.6.71-.88.95-1.11,1.2-1.19,1.48-4.4-.11-5.79-1.44-1.26-4.42-1.02-6.3,1.26Z"/>
    <path class="cls-8" d="m42.03,77.58c-.83.67-1.09,1.79-1.62,4.04-.7,2.97-.45,4.78-.14,5.94.41,1.54.95,1.95,1.35,2.11.53.21,1.26.17,1.49-.19.17-.27-.05-.54-.34-1.59-.27-.97-.39-1.46-.17-1.89.22-.42.76-.75,1.03-.61.4.2-.12,1.22.35,2.66.14.44.3.9.75,1.23.55.41,1.48.55,1.96.1.35-.33.35-.87.34-1.2,0-.44-.13-.56-.29-1.25-.15-.64-.26-1.08-.19-1.59.1-.8.61-1.55.82-1.49.33.09-.5,2.16.48,3.41.52.67,1.27.89,1.27.89.16.04.33.09.56.07.57-.06,1.1-.53,1.25-1.01.2-.63-.29-.96-.82-2.35-.47-1.25-.58-2.3-.62-2.79-.12-1.17.22-1.43,0-2.26-.25-.94-.87-1.54-1.08-1.75-1.54-1.5-4.62-1.92-6.38-.5Z"/>
  </g>
  <g id="Layer_4" data-name="Layer 4">
    <path class="cls-1" d="m5.53,5.47c-5.03,8.11-1.89,21.86,1.32,29.35,0,0,2.8,6.53,7.46,11.39.4.42.81.81.81.81.55.52,1.09.97,1.63,1.4,5.88,4.65,14.38,6.02,15.92,3.74.6-.88-1.51-4.27-5.7-10.96-2.13-3.41-3.43-5.3-5.53-9.05-1.64-2.92-2.52-4.38-2.8-5.3-1.05-3.49-.4-5.91-2.42-8.41-.61-.75-1.52-1.58-2-1.36-.65.3-.09,2.37-.59,2.56-.34.12-1.06-.63-1.91-2.18-3.43-6.25-2.31-13.49-3.98-13.9-.86-.21-1.97,1.54-2.21,1.92Z"/>
  </g>
  <g id="Layer_2-2" data-name="Layer 2">
    <path class="cls-7" d="m4.7,34.26c-1.87,3.64-1.8,7.05-1.75,8.61.11,3.39,1.25,4.95,3.5,10.9,2.07,5.47,2.23,6.97,3.11,9.21,3.45,8.75,13.91,18.43,26.35,19.15.9.05,13.64.67,15.94-4.97,3-7.35-14.21-19.03-17.28-29.44-.24-.8-1.02-3.78-2.93-4.26-1.69-.42-3.79,1.23-3.95,1.37-1.41,1.14-1.69,2.34-2.2,2.23-.59-.13-.35-1.77-.95-4.07-.87-3.34-2.41-3.86-2.07-5.37.53-2.34,4.78-3.19,5.27-3.29,4.2-.85,7.53,1.04,7.77.47.18-.43-1.66-1.82-3.77-2.73-3.36-1.46-5.95-1.09-5.97-1.47-.02-.44,3.53-1.56,7.57-.95,3.09.47,4.81,1.71,4.94,1.48.23-.39-4.14-4.77-10.62-6.3-1.07-.25-6.42-1.43-12.58.95-2.08.8-7.49,2.89-10.37,8.5Z"/>
    <path class="cls-7" d="m27,47.87c1.67-5.52,7.19-4.42,17.8-13.3,8.93-7.48,14.45-16.16,16.25-19.04C66.56,6.73,68.67-.41,70.31.02c1.48.39,1.08,6.61.99,7.95-.21,3.24-.96,6.76-2.61,10.72-2.96,7.13-6.66,10.51-5.62,11.75.62.74,1.94.06,6.08-.23,4.26-.3,7.81-.55,8.52.73,1.64,2.94-12.13,13.05-10.92,14.79.62.89,4.57-1.22,5.18-.26.52.82-1.76,3.33-4.07,5.34-4.61,4.02-8.16,5.02-11.83,7-9.53,5.12-9.03,10.9-13.87,11.24-7.55.53-17.76-12.58-15.16-21.18Z"/>
  </g>
  <g id="Layer_5" data-name="Layer 5">
    <path class="cls-6" d="m4.52,51.47c-.44,1.07,1.95,2.23,1.63,4.21-.13.78-.66,1.63-.33,2.14.11.17.52.62.85.81.01,0,.02.01.03.02,0,0,.31.16.68.22.25.04,2.19-.29,4.19-2.9.9-1.18,1.8-2.34,1.97-4.11.04-.36.21-2.16-.77-3.85,0,0,0-.01,0-.01,0,0-.52-.21-.57-.22-.65-.24-2.3,1.65-3.87,2.52-2,1.11-3.46.32-3.81,1.17Z"/>
  </g>
  <g id="Layer_6" data-name="Layer 6">
    <path class="cls-1" d="m6.02,43.6c-1.14-.13-2.13-.22-3.2.29C-.33,45.4-.03,50.74.04,51.86c.05.95.15,2.65,1.02,2.93.63.2,5.34-2.55,7.88-3.92,0,0,.63-.34,1.96-1.21,1.54-1.01,1.8-1.32,1.87-1.5,0-.01.01-.04.02-.07.27-1.26-3-4.07-6.77-4.49Z"/>
  </g>
  <g id="Layer_3" data-name="Layer 3">
    <path class="cls-1" d="m5.9,56.39c.31,0,.21,1.18.89,1.56.83.47,2.24-.55,2.61-.82.72-.52,1.1-1.05,1.79-2.01.96-1.34,1.86-2.91,1.86-2.91.44-.76.53-.99.67-.97.45.06.78,2.56.22,4.84-.27,1.13-.85,3.52-2.98,4.77-2.61,1.53-6.3.59-6.63-.6-.11-.4.24-.53.89-2.38.32-.91.45-1.49.67-1.49Z"/>
  </g>
  <g id="Layer_7" data-name="Layer 7">
    <path class="cls-3" d="m14.2,37.73c-1.68.84-1.84,5.02.05,7.53,1.19,1.58,3.6,3.03,5.06,2.21,1.58-.88,1.45-4.07.47-6.11-1.15-2.43-4.05-4.4-5.58-3.63Z"/>
    <path class="cls-2" d="m15.93,38.57c-.98.74-.78,3.93.57,5.74.85,1.14,2.43,2.1,3.28,1.4.91-.76.6-3.18-.14-4.69-.88-1.78-2.81-3.12-3.7-2.45Z"/>
    <path class="cls-3" d="m16.35,39.26c-.26.02-.46.54-.45.95,0,.21.07.65.3.71.25.07.63-.32.68-.74.05-.44-.27-.93-.53-.92Z"/>
  </g>
  <g id="Layer_14" data-name="Layer 14">
    <ellipse class="cls-3" cx="24.53" cy="63.52" rx="1.75" ry="2.92" transform="translate(-28.48 20.78) rotate(-30)"/>
    <ellipse class="cls-3" cx="15.32" cy="66.2" rx="1.75" ry="2.92" transform="translate(-31.05 16.53) rotate(-30)"/>
    <ellipse class="cls-3" cx="20.33" cy="67.08" rx="1.75" ry="2.92" transform="translate(-30.82 19.15) rotate(-30)"/>
  </g>
</svg>